<?xml version="1.0" encoding="utf-8"?>
<svg width="299" height="40" viewBox="0 0 299 40" fill="none" xmlns="http://www.w3.org/2000/svg">
<path d="M0 12.3245H1.54042V15.8834C1.85912 15.3522 2.28407 14.8741 2.70901 14.3961C3.13395 13.918 3.61201 13.4931 4.14319 13.1212C4.67437 12.7494 5.25867 12.4838 5.89608 12.2713C6.5335 12.0589 7.27715 11.9526 8.07391 11.9526C9.03004 11.9526 9.98616 12.1651 10.8892 12.5369C11.7922 12.9088 12.642 13.4399 13.3857 14.1836C14.1293 14.8741 14.7136 15.7771 15.1386 16.7864C15.5635 17.7956 15.8291 18.9642 15.8291 20.2921V20.3453C15.8291 21.6201 15.6166 22.7887 15.1386 23.851C14.7136 24.8603 14.1293 25.7633 13.3857 26.4538C12.642 27.1975 11.8453 27.7286 10.8892 28.1005C9.98616 28.4723 9.03004 28.6848 8.07391 28.6848C7.27715 28.6848 6.5335 28.5785 5.89608 28.3661C5.20555 28.1536 4.62125 27.888 4.09007 27.5162C3.5589 27.1443 3.08084 26.7725 2.65589 26.2945C2.23095 25.8164 1.85912 25.3383 1.54042 24.8603V33.306H0V12.3245ZM7.96768 27.1443C8.81756 27.1443 9.66745 26.985 10.4111 26.6663C11.1547 26.3476 11.8453 25.9226 12.3765 25.3383C12.9608 24.754 13.3857 24.0635 13.7044 23.2136C14.0231 22.3637 14.1825 21.4076 14.1825 20.3453V20.2921C14.1825 19.2298 14.0231 18.3268 13.7044 17.4769C13.3857 16.627 12.9076 15.8834 12.3233 15.2991C11.739 14.7148 11.1016 14.2367 10.3049 13.918C9.56121 13.5993 8.76445 13.4399 7.91456 13.4399C7.06467 13.4399 6.26791 13.5993 5.47114 13.918C4.67437 14.2367 3.98384 14.7148 3.39954 15.2991C2.81525 15.8834 2.28407 16.627 1.96536 17.4769C1.59354 18.3268 1.43418 19.2298 1.43418 20.239V20.2921C1.43418 21.3014 1.59354 22.2575 1.96536 23.1074C2.33719 23.9573 2.81525 24.6478 3.39954 25.2852C3.98384 25.8695 4.67437 26.3476 5.47114 26.6663C6.32102 26.985 7.11779 27.1443 7.96768 27.1443Z" fill="#FF771A"/>
<path d="M25.4439 28.6315C24.7002 28.6315 23.9566 28.5253 23.2129 28.3128C22.4693 28.1004 21.8319 27.7816 21.2476 27.3567C20.6633 26.9318 20.1852 26.4006 19.8134 25.8163C19.4416 25.1789 19.2822 24.4883 19.2822 23.6385V23.5322C19.2822 22.6823 19.4416 21.9387 19.8134 21.3013C20.1321 20.6639 20.6102 20.1327 21.2476 19.6546C21.8319 19.2297 22.5755 18.911 23.4254 18.6454C24.2753 18.4329 25.2314 18.3267 26.2407 18.3267C27.3561 18.3267 28.3123 18.3798 29.1621 18.5391C29.9589 18.6454 30.7557 18.8047 31.5525 19.0172V18.3267C31.5525 16.7331 31.0744 15.5114 30.1714 14.7147C29.2684 13.9179 27.9404 13.4929 26.2938 13.4929C25.3377 13.4929 24.4347 13.5992 23.5848 13.8648C22.788 14.1304 21.9912 14.3959 21.3007 14.7678L20.7164 13.4929C21.5663 13.068 22.4693 12.7493 23.3723 12.4837C24.2753 12.2181 25.2845 12.1119 26.3469 12.1119C28.5247 12.1119 30.2245 12.6962 31.3931 13.8648C32.4555 14.9271 33.0398 16.4675 33.0398 18.3798V28.3128H31.5525V25.6569C31.2869 26.0288 30.9682 26.4006 30.5432 26.7724C30.1714 27.1442 29.6933 27.4629 29.2153 27.7285C28.7372 27.9941 28.1529 28.2597 27.5155 28.4191C26.8781 28.5253 26.1875 28.6315 25.4439 28.6315ZM25.5501 27.1442C26.3469 27.1442 27.1437 27.038 27.8342 26.7724C28.5779 26.5599 29.2153 26.1881 29.7464 25.7632C30.2776 25.3382 30.7557 24.807 31.0744 24.2227C31.3931 23.6385 31.5525 22.9479 31.5525 22.2574V20.4514C30.8619 20.292 30.1183 20.1327 29.2153 19.9733C28.3123 19.814 27.303 19.7608 26.1344 19.7608C24.4347 19.7608 23.1598 20.0796 22.2568 20.7701C21.3538 21.4606 20.8758 22.3636 20.8758 23.4791V23.5322C20.8758 24.1165 20.982 24.6477 21.2476 25.0726C21.5132 25.4976 21.8319 25.9225 22.2568 26.1881C22.6818 26.5068 23.1598 26.7193 23.7441 26.8786C24.3284 27.038 24.9127 27.1442 25.5501 27.1442Z" fill="#FF771A"/>
<path d="M38.5103 12.3245H40.0507V15.8834C40.3694 15.3522 40.7943 14.8741 41.2193 14.3961C41.6442 13.918 42.1223 13.4931 42.6534 13.1212C43.1846 12.7494 43.7689 12.4838 44.4063 12.2713C45.0437 12.0589 45.7874 11.9526 46.5842 11.9526C47.5403 11.9526 48.4964 12.1651 49.3994 12.5369C50.3024 12.9088 51.1523 13.4399 51.896 14.1836C52.6396 14.8741 53.2239 15.7771 53.6488 16.7864C54.0738 17.7956 54.3394 18.9642 54.3394 20.2921V20.3453C54.3394 21.6201 54.1269 22.7887 53.6488 23.851C53.2239 24.8603 52.6396 25.7633 51.896 26.4538C51.1523 27.1975 50.3555 27.7286 49.3994 28.1005C48.4964 28.4723 47.5403 28.6848 46.5842 28.6848C45.7874 28.6848 45.0437 28.5785 44.4063 28.3661C43.7158 28.1536 43.1315 27.888 42.6003 27.5162C42.0691 27.1443 41.5911 26.7725 41.1661 26.2945C40.7412 25.8164 40.3694 25.3383 40.0507 24.8603V33.306H38.5103V12.3245ZM46.4779 27.1443C47.3278 27.1443 48.1777 26.985 48.9214 26.6663C49.665 26.3476 50.3555 25.9226 50.8867 25.3383C51.471 24.754 51.896 24.0635 52.2147 23.2136C52.5334 22.3637 52.6927 21.4076 52.6927 20.3453V20.2921C52.6927 19.2298 52.5334 18.3268 52.2147 17.4769C51.896 16.627 51.4179 15.8834 50.8336 15.2991C50.2493 14.7148 49.6119 14.2367 48.8151 13.918C48.0715 13.5993 47.2747 13.4399 46.4248 13.4399C45.5749 13.4399 44.7782 13.5993 43.9814 13.918C43.1846 14.2367 42.4941 14.7148 41.9098 15.2991C41.3255 15.8834 40.7943 16.627 40.4756 17.4769C40.1038 18.3268 39.9444 19.2298 39.9444 20.239V20.2921C39.9444 21.3014 40.1038 22.2575 40.4756 23.1074C40.8474 23.9573 41.3255 24.6478 41.9098 25.2852C42.4941 25.8695 43.1846 26.3476 43.9814 26.6663C44.8313 26.985 45.628 27.1443 46.4779 27.1443Z" fill="#FF771A"/>
<path d="M65.8664 28.6314C64.8041 28.6314 63.848 28.419 62.8918 28.0471C61.9357 27.6753 61.0858 27.091 60.3953 26.3474C59.6516 25.6037 59.1205 24.7538 58.6955 23.7446C58.2706 22.7354 58.0581 21.5668 58.0581 20.3451V20.2919C58.0581 19.1233 58.2706 18.061 58.6424 17.0518C59.0142 16.0425 59.5454 15.1395 60.2359 14.3959C60.9265 13.6522 61.7232 13.0679 62.6262 12.643C63.5292 12.218 64.5385 12.0056 65.6008 12.0056C66.7163 12.0056 67.7256 12.218 68.6286 12.643C69.5316 13.0679 70.2752 13.6522 70.9126 14.3959C71.55 15.1395 72.0281 16.0425 72.3999 17.0518C72.7186 18.061 72.9311 19.1765 72.9311 20.3451C72.9311 20.5044 72.9311 20.6106 72.9311 20.6638C72.9311 20.7169 72.9311 20.8231 72.878 20.9825H59.6516C59.7048 21.9917 59.9172 22.8416 60.2891 23.6384C60.6609 24.382 61.1389 25.0725 61.7232 25.6037C62.3075 26.1349 62.9449 26.5598 63.6355 26.8254C64.326 27.091 65.1228 27.2504 65.9195 27.2504C67.1944 27.2504 68.2036 27.0379 69.1066 26.5067C69.9565 26.0287 70.7533 25.4444 71.3907 24.7538L72.453 25.71C71.6563 26.5598 70.7002 27.3035 69.6909 27.8878C68.6286 28.3127 67.3537 28.6314 65.8664 28.6314ZM71.2313 19.5483C71.1782 18.7515 71.0189 17.9548 70.7533 17.2111C70.4877 16.4675 70.1159 15.83 69.6378 15.2457C69.1597 14.6614 68.5754 14.2365 67.8849 13.8647C67.1944 13.546 66.3976 13.3335 65.4946 13.3335C64.6978 13.3335 63.9542 13.4929 63.2637 13.8116C62.5731 14.1303 61.9888 14.5552 61.4576 15.0864C60.9265 15.6176 60.5015 16.3081 60.1828 17.0518C59.8641 17.7954 59.6516 18.6453 59.5985 19.4952H71.2313V19.5483Z" fill="#FF771A"/>
<path d="M77.3403 12.3243H78.8807V16.8393C79.1995 16.1488 79.5713 15.4583 80.0493 14.874C80.5274 14.2897 81.0586 13.7585 81.696 13.3335C82.2803 12.9086 82.9708 12.5899 83.6614 12.3774C84.405 12.165 85.1487 12.0587 85.9454 12.0587V13.7585H85.7861C84.8831 13.7585 83.9801 13.9178 83.1833 14.2897C82.3334 14.6084 81.6429 15.1396 81.0055 15.8301C80.368 16.5206 79.89 17.3174 79.465 18.3266C79.0932 19.3359 78.8807 20.4513 78.8807 21.7262V28.2597H77.3403V12.3243Z" fill="#FF771A"/>
<path d="M90.0347 5.47217H91.5751V28.2597H90.0347V5.47217Z" fill="#FF771A"/>
<path d="M104.323 28.6314C103.261 28.6314 102.304 28.419 101.348 28.0471C100.392 27.6753 99.5424 27.091 98.8518 26.3474C98.1082 25.6037 97.577 24.7538 97.1521 23.7446C96.7271 22.7354 96.5146 21.5668 96.5146 20.3451V20.2919C96.5146 19.1233 96.7271 18.061 97.0989 17.0518C97.4708 16.0425 98.002 15.1395 98.6925 14.3959C99.383 13.6522 100.18 13.0679 101.083 12.643C101.986 12.218 102.995 12.0056 104.057 12.0056C105.173 12.0056 106.182 12.218 107.085 12.643C107.988 13.0679 108.732 13.6522 109.369 14.3959C110.007 15.1395 110.485 16.0425 110.856 17.0518C111.175 18.061 111.388 19.1765 111.388 20.3451C111.388 20.5044 111.388 20.6106 111.388 20.6638C111.388 20.7169 111.388 20.8231 111.335 20.9825H98.1082C98.1613 21.9917 98.3738 22.8416 98.7456 23.6384C99.1174 24.382 99.5955 25.0725 100.18 25.6037C100.764 26.1349 101.401 26.5598 102.092 26.8254C102.783 27.091 103.579 27.2504 104.376 27.2504C105.651 27.2504 106.66 27.0379 107.563 26.5067C108.413 26.0287 109.21 25.4444 109.847 24.7538L110.91 25.71C110.113 26.5598 109.157 27.3035 108.147 27.8878C107.138 28.3127 105.863 28.6314 104.323 28.6314ZM109.741 19.5483C109.688 18.7515 109.529 17.9548 109.263 17.2111C108.997 16.4675 108.626 15.83 108.147 15.2457C107.669 14.6614 107.085 14.2365 106.395 13.8647C105.704 13.546 104.907 13.3335 104.004 13.3335C103.208 13.3335 102.464 13.4929 101.773 13.8116C101.083 14.1303 100.498 14.5552 99.9673 15.0864C99.4361 15.6176 99.0112 16.3081 98.6925 17.0518C98.3738 17.7954 98.1613 18.6453 98.1082 19.4952H109.741V19.5483Z" fill="#FF771A"/>
<path d="M121.002 28.5253C119.834 28.5253 118.665 28.3128 117.496 27.8878C116.328 27.4629 115.319 26.8786 114.469 26.1881L115.372 24.9664C116.222 25.6569 117.178 26.1349 118.134 26.5068C119.09 26.8786 120.099 27.0379 121.108 27.0379C122.171 27.0379 123.127 26.7724 123.817 26.2412C124.561 25.71 124.933 24.9664 124.933 24.0102V23.9571C124.933 23.4791 124.827 23.1072 124.614 22.7885C124.402 22.4698 124.083 22.1511 123.658 21.9386C123.233 21.7262 122.808 21.4606 122.33 21.3012C121.852 21.1419 121.321 20.9825 120.737 20.8232C120.099 20.6107 119.462 20.4513 118.771 20.2389C118.134 20.0264 117.55 19.7608 117.018 19.4421C116.487 19.1234 116.062 18.6984 115.744 18.2204C115.425 17.7423 115.266 17.158 115.266 16.4675V16.4144C115.266 15.777 115.372 15.1927 115.637 14.6615C115.903 14.1303 116.275 13.6523 116.7 13.2804C117.178 12.9086 117.709 12.5899 118.346 12.3774C118.984 12.165 119.674 12.0587 120.471 12.0587C121.427 12.0587 122.436 12.2181 123.446 12.5368C124.455 12.8555 125.358 13.2804 126.155 13.8116L125.358 15.0864C124.614 14.6084 123.871 14.2365 123.021 13.9178C122.171 13.6523 121.321 13.4929 120.471 13.4929C119.356 13.4929 118.506 13.7585 117.815 14.2897C117.178 14.8208 116.806 15.4583 116.806 16.255V16.3081C116.806 16.7331 116.912 17.1049 117.178 17.4236C117.443 17.7423 117.762 18.0079 118.187 18.2735C118.612 18.486 119.09 18.6984 119.621 18.8578C120.152 19.0172 120.737 19.2296 121.268 19.389C121.905 19.6015 122.543 19.7608 123.18 19.9733C123.817 20.1857 124.349 20.4513 124.88 20.8232C125.358 21.1419 125.783 21.5668 126.102 22.0449C126.42 22.5229 126.58 23.1072 126.58 23.7978V23.8509C126.58 24.5414 126.42 25.1788 126.155 25.7631C125.889 26.3474 125.464 26.8255 124.986 27.2504C124.508 27.6754 123.924 27.941 123.233 28.2065C122.436 28.419 121.746 28.5253 121.002 28.5253Z" fill="#FF771A"/>
<path d="M136.513 28.5253C135.344 28.5253 134.175 28.3128 133.007 27.8878C131.838 27.4629 130.829 26.8786 129.979 26.1881L130.882 24.9664C131.732 25.6569 132.688 26.1349 133.644 26.5068C134.6 26.8786 135.61 27.0379 136.619 27.0379C137.681 27.0379 138.637 26.7724 139.328 26.2412C140.071 25.71 140.443 24.9664 140.443 24.0102V23.9571C140.443 23.4791 140.337 23.1072 140.125 22.7885C139.912 22.4698 139.593 22.1511 139.168 21.9386C138.743 21.7262 138.319 21.4606 137.84 21.3012C137.362 21.1419 136.831 20.9825 136.247 20.8232C135.609 20.6107 134.972 20.4513 134.282 20.2389C133.644 20.0264 133.06 19.7608 132.529 19.4421C131.997 19.1234 131.573 18.6984 131.254 18.2204C130.935 17.7423 130.776 17.158 130.776 16.4675V16.4144C130.776 15.777 130.882 15.1927 131.148 14.6615C131.413 14.1303 131.785 13.6523 132.21 13.2804C132.688 12.9086 133.219 12.5899 133.857 12.3774C134.494 12.165 135.185 12.0587 135.981 12.0587C136.937 12.0587 137.947 12.2181 138.956 12.5368C139.965 12.8555 140.868 13.2804 141.665 13.8116L140.868 15.0864C140.125 14.6084 139.381 14.2365 138.531 13.9178C137.681 13.6523 136.831 13.4929 135.981 13.4929C134.866 13.4929 134.016 13.7585 133.325 14.2897C132.688 14.8208 132.316 15.4583 132.316 16.255V16.3081C132.316 16.7331 132.422 17.1049 132.688 17.4236C132.954 17.7423 133.272 18.0079 133.697 18.2735C134.122 18.486 134.6 18.6984 135.131 18.8578C135.663 19.0172 136.247 19.2296 136.778 19.389C137.416 19.6015 138.053 19.7608 138.69 19.9733C139.328 20.1857 139.859 20.4513 140.39 20.8232C140.868 21.1419 141.293 21.5668 141.612 22.0449C141.931 22.5229 142.09 23.1072 142.09 23.7978V23.8509C142.09 24.5414 141.931 25.1788 141.665 25.7631C141.399 26.3474 140.974 26.8255 140.496 27.2504C140.018 27.6754 139.434 27.941 138.743 28.2065C138 28.419 137.256 28.5253 136.513 28.5253Z" fill="#FF771A"/>
<path d="M146.551 6.37524H155.475C156.803 6.37524 157.972 6.5346 158.981 6.90642C159.99 7.27825 160.893 7.80943 161.584 8.44684C162.327 9.13737 162.858 9.93414 163.23 10.8371C163.602 11.7401 163.815 12.8025 163.815 13.918V13.9711C163.815 15.2459 163.602 16.3614 163.124 17.3175C162.646 18.2736 162.062 19.0704 161.212 19.7078C160.415 20.3452 159.459 20.8233 158.397 21.142C157.334 21.4607 156.166 21.6201 154.944 21.6201H151.385V28.1536H146.604V6.37524H146.551ZM155.156 17.4238C156.378 17.4238 157.281 17.1051 157.972 16.4676C158.662 15.8302 158.981 15.0335 158.981 14.1305V14.0773C158.981 13.015 158.609 12.1651 157.918 11.6339C157.228 11.1027 156.272 10.784 155.05 10.784H151.332V17.4769H155.156V17.4238Z" fill="#FF771A"/>
<path d="M174.917 6.21576H179.326L188.674 28.2066H183.628L181.61 23.3197H172.367L170.349 28.2066H165.462L174.917 6.21576ZM179.963 19.0703L177.042 12.0056L174.12 19.0703H179.963Z" fill="#FF771A"/>
<path d="M192.075 6.37524H202.061C204.823 6.37524 206.948 7.11889 208.435 8.60619C209.71 9.88102 210.295 11.5277 210.295 13.5993V13.6524C210.295 15.4053 209.87 16.8395 209.02 17.9549C208.17 19.0704 207.001 19.8672 205.62 20.3984L210.932 28.2067H205.302L200.627 21.1951H200.574H196.856V28.2067H192.075V6.37524ZM201.743 16.9988C202.911 16.9988 203.814 16.7332 204.452 16.1489C205.089 15.5646 205.408 14.821 205.408 13.918V13.8649C205.408 12.8025 205.089 12.0589 204.399 11.5277C203.708 10.9965 202.805 10.7309 201.636 10.7309H196.856V16.9988H201.743Z" fill="#FF771A"/>
<path d="M219.748 10.8369H213.108V6.42816H231.222V10.8369H224.582V28.2596H219.801V10.8369H219.748Z" fill="#FF771A"/>
<path d="M242.696 28.5254C241.049 28.5254 239.402 28.2598 237.809 27.6755C236.215 27.0912 234.728 26.2413 233.453 25.0196L236.268 21.6201C237.278 22.4169 238.287 23.0543 239.349 23.5323C240.412 24.0104 241.527 24.276 242.802 24.276C243.811 24.276 244.555 24.1166 245.139 23.7448C245.67 23.373 245.989 22.8949 245.989 22.2575V22.2044C245.989 21.8857 245.936 21.6201 245.83 21.3545C245.723 21.142 245.511 20.8764 245.192 20.664C244.873 20.4515 244.395 20.239 243.864 20.0266C243.28 19.8141 242.536 19.6016 241.633 19.3891C240.518 19.1236 239.509 18.8048 238.606 18.4861C237.703 18.1674 236.959 17.7425 236.321 17.2644C235.684 16.7864 235.206 16.149 234.887 15.4584C234.569 14.7148 234.356 13.8118 234.356 12.7494V12.6963C234.356 11.6871 234.515 10.7841 234.887 9.98728C235.259 9.19052 235.79 8.49998 236.428 7.91569C237.118 7.33139 237.915 6.90645 238.818 6.58774C239.774 6.26903 240.783 6.10968 241.899 6.10968C243.492 6.10968 244.98 6.37527 246.308 6.85333C247.636 7.33139 248.857 8.02192 250.026 8.92493L247.529 12.5369C246.573 11.8464 245.617 11.3683 244.661 10.9434C243.705 10.5716 242.802 10.3591 241.846 10.3591C240.89 10.3591 240.199 10.5185 239.721 10.8903C239.243 11.2621 239.031 11.6871 239.031 12.2714V12.3245C239.031 12.6963 239.084 12.9619 239.243 13.2275C239.402 13.4931 239.615 13.7055 239.987 13.918C240.358 14.1305 240.837 14.3429 241.421 14.5023C242.058 14.7148 242.802 14.9272 243.758 15.1397C244.873 15.4053 245.83 15.7771 246.733 16.149C247.582 16.5208 248.326 16.9457 248.91 17.4769C249.495 18.0081 249.973 18.5924 250.238 19.2829C250.557 19.9734 250.716 20.7702 250.716 21.7263V21.7794C250.716 22.8418 250.504 23.7979 250.132 24.6478C249.76 25.4977 249.176 26.1882 248.485 26.7725C247.795 27.3568 246.945 27.7818 245.989 28.1005C244.927 28.4192 243.864 28.5254 242.696 28.5254Z" fill="#FF771A"/>
<path d="M281.471 19.7079L261.18 12.2183V32.3499L281.471 39.8395V19.7079Z" fill="#FF771A"/>
<path d="M283.701 39.3613L298.999 29.1626V9.34967L283.701 19.5483V39.3613Z" fill="#FF771A"/>
<path d="M297.672 7.54378L277.753 0.1604L262.508 10.3059L282.427 17.6893L297.672 7.54378Z" fill="#FF771A"/>
</svg>
